<svg xmlns="http://www.w3.org/2000/svg" xmlns:xlink="http://www.w3.org/1999/xlink" viewBox="0 0 178 34" width="178px" height="34px">
  <defs>
    <linearGradient id='g1' y2='1'>
      <stop stop-color='#2d89e6'/>
      <stop offset='.01' stop-color='#5cbef3'/>
      <stop offset='1' stop-color='#3448df'/>
    </linearGradient>
    <filter x="-26.9%" y="-19.2%" width="153.8%" height="153.8%" filterUnits="objectBoundingBox" id="a">
      <feOffset dy="2" in="SourceAlpha" result="shadowOffsetOuter1"/>
      <feGaussianBlur stdDeviation="2" in="shadowOffsetOuter1" result="shadowBlurOuter1"/>
      <feColorMatrix values="0 0 0 0 0 0 0 0 0 0 0 0 0 0 0 0 0 0 0.25 0" in="shadowBlurOuter1"/>
    </filter>
    <rect id="b" x="0" y="0" width="26" height="26" rx="2"/>
  </defs>
  <g fill="none" fill-rule="evenodd">
    <path d="M43.53,23 L43.53,14.908 C43.53,14.0306667 43.782,13.3073333 44.286,12.738 C44.79,12.1686667 45.4806667,11.884 46.358,11.884 C47.2913333,11.884 47.9633333,12.1546667 48.374,12.696 C48.7846667,13.2373333 48.99,13.9 48.99,14.684 L48.99,14.684 L48.99,23 L52.182,23 L52.182,14.908 C52.182,14.068 52.4386667,13.354 52.952,12.766 C53.4653333,12.178 54.1513333,11.884 55.01,11.884 C55.9246667,11.884 56.592,12.15 57.012,12.682 C57.432,13.214 57.642,13.8813333 57.642,14.684 L57.642,14.684 L57.642,23 L60.778,23 L60.778,14.152 C60.778,13.256 60.6426667,12.4813333 60.372,11.828 C60.1013333,11.1746667 59.742,10.638 59.294,10.218 C58.846,9.798 58.3326667,9.48533333 57.754,9.28 C57.1753333,9.07466667 56.578,8.972 55.962,8.972 C55.066,8.972 54.24,9.14933333 53.484,9.504 C52.728,9.85866667 52.0793333,10.484 51.538,11.38 C51.1646667,10.5773333 50.614,9.97533333 49.886,9.574 C49.158,9.17266667 48.346,8.972 47.45,8.972 C46.6846667,8.972 45.9193333,9.154 45.154,9.518 C44.3886667,9.882 43.81,10.4093333 43.418,11.1 L43.418,11.1 L43.418,9.364 L40.31,9.364 L40.31,23 L43.53,23 Z M66.35,6.676 C66.9473333,6.676 67.4513333,6.47533333 67.862,6.074 C68.2726667,5.67266667 68.478,5.17333333 68.478,4.576 C68.478,3.97866667 68.2726667,3.47466667 67.862,3.064 C67.4513333,2.65333333 66.9473333,2.448 66.35,2.448 C65.7713333,2.448 65.2766667,2.65333333 64.866,3.064 C64.4553333,3.47466667 64.25,3.97866667 64.25,4.576 C64.25,5.17333333 64.4553333,5.67266667 64.866,6.074 C65.2766667,6.47533333 65.7713333,6.676 66.35,6.676 Z M67.974,23 L67.974,9.364 L64.754,9.364 L64.754,23 L67.974,23 Z M75.422,23 L75.422,15.132 C75.422,14.236 75.66,13.4753333 76.136,12.85 C76.612,12.2246667 77.3166667,11.912 78.25,11.912 C79.2766667,11.912 80,12.206 80.42,12.794 C80.84,13.382 81.05,14.096 81.05,14.936 L81.05,14.936 L81.05,23 L84.298,23 L84.298,14.376 C84.298,13.6293333 84.1953333,12.9293333 83.99,12.276 C83.7846667,11.6226667 83.4813333,11.0486667 83.08,10.554 C82.6786667,10.0593333 82.17,9.672 81.554,9.392 C80.938,9.112 80.21,8.972 79.37,8.972 C78.6046667,8.972 77.8533333,9.14466667 77.116,9.49 C76.3786667,9.83533333 75.786,10.4 75.338,11.184 L75.338,11.184 L75.338,9.364 L72.174,9.364 L72.174,23 L75.422,23 Z M89.842,6.676 C90.4393333,6.676 90.9433333,6.47533333 91.354,6.074 C91.7646667,5.67266667 91.97,5.17333333 91.97,4.576 C91.97,3.97866667 91.7646667,3.47466667 91.354,3.064 C90.9433333,2.65333333 90.4393333,2.448 89.842,2.448 C89.2633333,2.448 88.7686667,2.65333333 88.358,3.064 C87.9473333,3.47466667 87.742,3.97866667 87.742,4.576 C87.742,5.17333333 87.9473333,5.67266667 88.358,6.074 C88.7686667,6.47533333 89.2633333,6.676 89.842,6.676 Z M91.466,23 L91.466,9.364 L88.246,9.364 L88.246,23 L91.466,23 Z M98.886,23 L98.886,14.908 C98.886,14.0306667 99.138,13.3073333 99.642,12.738 C100.146,12.1686667 100.836667,11.884 101.714,11.884 C102.647333,11.884 103.319333,12.1546667 103.73,12.696 C104.140667,13.2373333 104.346,13.9 104.346,14.684 L104.346,14.684 L104.346,23 L107.538,23 L107.538,14.908 C107.538,14.068 107.794667,13.354 108.308,12.766 C108.821333,12.178 109.507333,11.884 110.366,11.884 C111.280667,11.884 111.948,12.15 112.368,12.682 C112.788,13.214 112.998,13.8813333 112.998,14.684 L112.998,14.684 L112.998,23 L116.134,23 L116.134,14.152 C116.134,13.256 115.998667,12.4813333 115.728,11.828 C115.457333,11.1746667 115.098,10.638 114.65,10.218 C114.202,9.798 113.688667,9.48533333 113.11,9.28 C112.531333,9.07466667 111.934,8.972 111.318,8.972 C110.422,8.972 109.596,9.14933333 108.84,9.504 C108.084,9.85866667 107.435333,10.484 106.894,11.38 C106.520667,10.5773333 105.97,9.97533333 105.242,9.574 C104.514,9.17266667 103.702,8.972 102.806,8.972 C102.040667,8.972 101.275333,9.154 100.51,9.518 C99.7446667,9.882 99.166,10.4093333 98.774,11.1 L98.774,11.1 L98.774,9.364 L95.666,9.364 L95.666,23 L98.886,23 Z M123.89,23.42 C124.991333,23.42 125.887333,23.1913333 126.578,22.734 C127.268667,22.2766667 127.772667,21.7866667 128.09,21.264 C128.09,21.8053333 128.108667,22.2206667 128.146,22.51 C128.183333,22.7993333 128.211333,22.9626667 128.23,23 L128.23,23 L131.254,23 C131.235333,22.9253333 131.202667,22.6966667 131.156,22.314 C131.109333,21.9313333 131.086,21.432 131.086,20.816 L131.086,20.816 L131.086,14.04 C131.086,13.368 130.978667,12.724 130.764,12.108 C130.549333,11.492 130.213333,10.9506667 129.756,10.484 C129.298667,10.0173333 128.701333,9.644 127.964,9.364 C127.226667,9.084 126.335333,8.944 125.29,8.944 C124.45,8.944 123.689333,9.06533333 123.008,9.308 C122.326667,9.55066667 121.743333,9.87733333 121.258,10.288 C120.772667,10.6986667 120.380667,11.1746667 120.082,11.716 C119.783333,12.2573333 119.606,12.8173333 119.55,13.396 L119.55,13.396 L122.518,14.068 C122.592667,13.3773333 122.863333,12.794 123.33,12.318 C123.796667,11.842 124.459333,11.604 125.318,11.604 C126.214,11.604 126.867333,11.8046667 127.278,12.206 C127.688667,12.6073333 127.894,13.0973333 127.894,13.676 C127.894,13.9186667 127.824,14.1286667 127.684,14.306 C127.544,14.4833333 127.278,14.6 126.886,14.656 L126.886,14.656 L123.386,15.188 C122.807333,15.2813333 122.266,15.4306667 121.762,15.636 C121.258,15.8413333 120.824,16.1166667 120.46,16.462 C120.096,16.8073333 119.806667,17.2133333 119.592,17.68 C119.377333,18.1466667 119.27,18.688 119.27,19.304 C119.27,19.8453333 119.377333,20.3633333 119.592,20.858 C119.806667,21.3526667 120.114667,21.7913333 120.516,22.174 C120.917333,22.5566667 121.402667,22.86 121.972,23.084 C122.541333,23.308 123.180667,23.42 123.89,23.42 Z M124.506,20.872 C123.852667,20.872 123.358,20.6946667 123.022,20.34 C122.686,19.9853333 122.518,19.5746667 122.518,19.108 C122.518,18.548 122.695333,18.1233333 123.05,17.834 C123.404667,17.5446667 123.834,17.3533333 124.338,17.26 L124.338,17.26 L127.894,16.728 L127.894,17.344 C127.894,18.016 127.800667,18.576 127.614,19.024 C127.427333,19.472 127.18,19.8313333 126.872,20.102 C126.564,20.3726667 126.204667,20.5686667 125.794,20.69 C125.383333,20.8113333 124.954,20.872 124.506,20.872 Z M138.254,23 L138.254,2.728 L135.006,2.728 L135.006,23 L138.254,23 Z M144.05,6.676 C144.647333,6.676 145.151333,6.47533333 145.562,6.074 C145.972667,5.67266667 146.178,5.17333333 146.178,4.576 C146.178,3.97866667 145.972667,3.47466667 145.562,3.064 C145.151333,2.65333333 144.647333,2.448 144.05,2.448 C143.471333,2.448 142.976667,2.65333333 142.566,3.064 C142.155333,3.47466667 141.95,3.97866667 141.95,4.576 C141.95,5.17333333 142.155333,5.67266667 142.566,6.074 C142.976667,6.47533333 143.471333,6.676 144.05,6.676 Z M145.674,23 L145.674,9.364 L142.454,9.364 L142.454,23 L145.674,23 Z M154.298,23.42 C155.156667,23.42 155.912667,23.2893333 156.566,23.028 C157.219333,22.7666667 157.756,22.426 158.176,22.006 C158.596,21.586 158.913333,21.1193333 159.128,20.606 C159.342667,20.0926667 159.45,19.5746667 159.45,19.052 C159.45,18.044 159.118667,17.1713333 158.456,16.434 C157.793333,15.6966667 156.818,15.188 155.53,14.908 L155.53,14.908 L153.458,14.488 C153.028667,14.3946667 152.692667,14.2266667 152.45,13.984 C152.207333,13.7413333 152.086,13.4333333 152.086,13.06 C152.086,12.6306667 152.268,12.262 152.632,11.954 C152.996,11.646 153.467333,11.492 154.046,11.492 C154.494,11.492 154.872,11.562 155.18,11.702 C155.488,11.842 155.74,12.0146667 155.936,12.22 C156.132,12.4253333 156.276667,12.6493333 156.37,12.892 C156.463333,13.1346667 156.528667,13.3493333 156.566,13.536 L156.566,13.536 L159.31,12.752 C159.254,12.416 159.128,12.0286667 158.932,11.59 C158.736,11.1513333 158.432667,10.736 158.022,10.344 C157.611333,9.952 157.084,9.62066667 156.44,9.35 C155.796,9.07933333 154.998,8.944 154.046,8.944 C153.336667,8.944 152.678667,9.06066667 152.072,9.294 C151.465333,9.52733333 150.938,9.84466667 150.49,10.246 C150.042,10.6473333 149.687333,11.114 149.426,11.646 C149.164667,12.178 149.034,12.7426667 149.034,13.34 C149.034,14.292 149.342,15.1273333 149.958,15.846 C150.574,16.5646667 151.488667,17.0546667 152.702,17.316 L152.702,17.316 L154.718,17.764 C155.259333,17.876 155.660667,18.0626667 155.922,18.324 C156.183333,18.5853333 156.314,18.9026667 156.314,19.276 C156.314,19.7053333 156.141333,20.074 155.796,20.382 C155.450667,20.69 154.942,20.844 154.27,20.844 C153.392667,20.844 152.725333,20.6106667 152.268,20.144 C151.810667,19.6773333 151.554,19.136 151.498,18.52 L151.498,18.52 L148.67,19.304 C148.707333,19.696 148.838,20.13 149.062,20.606 C149.286,21.082 149.622,21.53 150.07,21.95 C150.518,22.37 151.087333,22.72 151.778,23 C152.468667,23.28 153.308667,23.42 154.298,23.42 Z M167.654,23.168 C168.251333,23.168 168.708667,23.126 169.026,23.042 C169.343333,22.958 169.548667,22.8973333 169.642,22.86 L169.642,22.86 L169.642,20.172 C169.567333,20.1906667 169.418,20.214 169.194,20.242 C168.97,20.27 168.746,20.284 168.522,20.284 C167.924667,20.284 167.486,20.1486667 167.206,19.878 C166.926,19.6073333 166.786,19.1733333 166.786,18.576 L166.786,18.576 L166.786,12.248 L169.614,12.248 L169.614,9.364 L166.786,9.364 L166.786,5.192 L163.846,5.192 L163.846,7.236 C163.846,7.83333333 163.678,8.33733333 163.342,8.748 C163.006,9.15866667 162.474,9.364 161.746,9.364 L161.746,9.364 L161.046,9.364 L161.046,12.248 L163.566,12.248 L163.566,19.108 C163.566,20.396 163.93,21.3946667 164.658,22.104 C165.386,22.8133333 166.384667,23.168 167.654,23.168 Z" id="minimalist" fill="#262626" fill-rule="nonzero"></path>
    <g transform="translate(4 2)">
      <use fill="#000" filter="url(#a)" xlink:href="#b"/>
      <use fill="url(#g1)" xlink:href="#b"/>
    </g>
    <path fill="#FFF" d="M15.05 17.429801l-3.4125-3.4125-1.1375 1.1375 4.55 4.55 8.9839677-8.98396767-1.1375-1.1375z"/>
  </g>
</svg>
